# xmcd
#
# Track frame offsets:
#	150
#	12920
#	23712
#	35127
#	49537
#	64032
#	76260
#	88130
#	99180
#	112745
#	131870
#	151595
#
# Disc length: 2202
#
# Revision: 3
# Processed by: cddbd v1.5.1PL0 Copyright (c) Steve Scherf et al.
# Submitted via: DiscPlay 4.0.4
# Normalized: r1:TDELIM( - ),TSWAP
#
DISCID=8508980c
DTITLE=Various Artist - The Best Of Chess Blues
DYEAR=1900
DGENRE=
TTITLE0=Howlin' Wolf - Back Door Man
TTITLE1=Elmore James - Madison Blues
TTITLE2=Sonny Boy Williamson - Your Funeral My Trial
TTITLE3=Otis Rush - So Many Roads, So Many Trains
TTITLE4=Buddy Guy - My Time After Awhile
TTITLE5=Muddy Waters - You Shook Me
TTITLE6=Sonny Boy Williamson - Bring It On Home
TTITLE7=Howlin' Wolf - Little Red Rooster
TTITLE8=John Lee Hooker - One Bourbon, One Scotch, One Beer
TTITLE9=Etta James - Baby What You Want Me To Do
TTITLE10=Little Milton - Stormy Monday
TTITLE11=Koko Taylor - Wang Dang Doodle
EXTD=
EXTT0=
EXTT1=
EXTT2=
EXTT3=
EXTT4=
EXTT5=
EXTT6=
EXTT7=
EXTT8=
EXTT9=
EXTT10=
EXTT11=
PLAYORDER=
